<svg xmlns="http://www.w3.org/2000/svg" xmlns:xlink="http://www.w3.org/1999/xlink" width="55" height="55" viewBox="0 0 55 55"><defs><style>.a,.c{fill:none;}.a{stroke:#707070;}.b{clip-path:url(#a);}.c{stroke:#e7eece;stroke-miterlimit:10;stroke-width:1.124px;}</style><clipPath id="a"><rect class="a" width="55" height="55" transform="translate(758 141)"/></clipPath></defs><g class="b" transform="translate(-758 -141)"><g transform="translate(758 141.515)"><path class="c" d="M146.352,135.162c-14.876,0-26.937-11.83-26.937-26.423s12.06-26.422,26.937-26.422,26.936,11.83,26.936,26.422" transform="translate(-118.853 -81.754)"/><path class="c" d="M176.87,112.852a26.916,26.916,0,0,1-26.916,26.914" transform="translate(-122.432 -86.361)"/><path class="c" d="M149.337,130.839c2.907,0,5.285-1.844,5.285-4.1V107.713c0-.119-.009-.234-.019-.346,0-.048.019-.094.019-.144,0-1.341-1.416-2.44-3.146-2.44H140.527c-1.73,0-3.146,1.1-3.146,2.44s1.416,2.44,3.146,2.44h3.524v17.077c0,2.254,2.378,4.1,5.285,4.1" transform="translate(-121.038 -85.902)"/><ellipse class="c" cx="4.593" cy="4.195" rx="4.593" ry="4.195" transform="translate(22.834 9.033)"/></g></g></svg>