<svg xmlns="http://www.w3.org/2000/svg" xmlns:xlink="http://www.w3.org/1999/xlink" width="55" height="55" viewBox="0 0 55 55"><defs><style>.a,.c,.d{fill:none;}.a{stroke:#707070;}.b{clip-path:url(#a);}.c,.d{stroke:#e7eece;}.c{stroke-miterlimit:10;stroke-width:0.814px;}.d{stroke-width:0.814px;}</style><clipPath id="a"><rect class="a" width="55" height="55" transform="translate(879 285)"/></clipPath></defs><g class="b" transform="translate(-879 -285)"><g transform="translate(878.998 288.289)"><path class="c" d="M284.858,79.454a.754.754,0,0,1,.317-.191l6.864-1.887,4.845-1.332a2.016,2.016,0,0,1,2.131.78,3.41,3.41,0,0,1,.621,2.675l-1.061,6.082L297.106,94a3.77,3.77,0,0,1-.76,1.991l-5.325,6.685a2.34,2.34,0,0,1-3.821.012l-3.36-4.218-2.416,3.033-2-2.517,2.416-3.033-3.36-4.218a4.044,4.044,0,0,1,.009-4.8l5.325-6.685a2.651,2.651,0,0,1,1.049-.8Z" transform="translate(-245.108 -70.599)"/><path class="c" d="M270.633,99.31,266.8,103.6a5.714,5.714,0,0,0,.163,6.771,3.308,3.308,0,0,0,5.394.2l3.115-4.39" transform="translate(-245.787 -62.971)"/><path class="c" d="M280.012,100.815c1.441-1.809,2.142-4.447.614-6.365s-4.036-.689-5.475,1.116" transform="translate(-245.252 -64.876)"/><path class="d" d="M1.305-.061A.948.948,0,0,1,2.39,1.049,1.636,1.636,0,0,1,1.023,2.436.948.948,0,0,1-.062,1.326,1.636,1.636,0,0,1,1.305-.061Z" transform="translate(22.53 43.593) rotate(-45)"/><path class="c" d="M269.374,84.1l-10.7-11.191c-.756-.948-1.057-.983-1.768-.125-.684.893-.657,1.272.1,2.22l7.574,10.417-1.916,2.4-8.427-9.241c-.663-.833-1.253-1.457-2.067-.432s-.32,1.764.344,2.6l7.361,10.58-1.905,2.392-8.536-9.782c-.756-.948-1.056-.983-1.769-.125-.684.893-.656,1.272.1,2.22l9.209,13.875a4.638,4.638,0,0,0,.551.917l2.585,3.245a3.191,3.191,0,0,0,5.212,0l2.94-3.692a1.74,1.74,0,0,0,.188.292l1.5,1.887c.564.708.638-.349,1.2-1.059s1.324-.935.757-1.646l-1.405-1.764a1.571,1.571,0,0,0-.232-.236l2.542-3.192a5.515,5.515,0,0,0,0-6.543l-2.584-3.245a3.787,3.787,0,0,0-.858-.772Z" transform="translate(-246.846 -71.843)"/><path class="c" d="M247.536,81.1c.038-.047.07-.079.105-.125s.063-.085.1-.132Z" transform="translate(-246.825 -69.006)"/><path class="c" d="M256.28,72.79c.038-.047.07-.079.105-.125s.063-.085.1-.132Z" transform="translate(-246.327 -71.724)"/><path class="c" d="M284.039,112.307a3.3,3.3,0,0,1-5.381.22l-8.406-11.853c-1.431-1.8-1.871-4.186-.343-6.1s3.432-1.368,4.863.429l9.442,10.553a5.7,5.7,0,0,1-.175,6.756Z" transform="translate(-245.606 -64.914)"/><path class="d" d="M1.326-.062a.945.945,0,0,1,1.11,1.078A1.632,1.632,0,0,1,1.05,2.377.945.945,0,0,1-.061,1.3,1.632,1.632,0,0,1,1.326-.062Z" transform="translate(33.772 43.644) rotate(-45)"/></g></g></svg>