<svg xmlns="http://www.w3.org/2000/svg" xmlns:xlink="http://www.w3.org/1999/xlink" width="55" height="55" viewBox="0 0 55 55"><defs><style>.a,.c,.d{fill:none;}.a{stroke:#707070;}.b{clip-path:url(#a);}.c,.d{stroke:#e7eece;stroke-miterlimit:10;}.c{stroke-width:1.002px;}.d{stroke-width:1.003px;}</style><clipPath id="a"><rect class="a" width="55" height="55" transform="translate(1060 138)"/></clipPath></defs><g class="b" transform="translate(-1060 -138)"><g transform="translate(1072.217 138)"><path class="c" d="M422.119,109.046,425.743,93.7c.4-1.141.247-1.472-.961-1.919-1.224-.4-1.55-.241-1.949.9l-4.82,11.752-3.339-1.17,3.242-12.237c.351-1,.559-1.85-.865-2.346s-1.79.292-2.141,1.293l-5.1,11.587-3.321-1.163,3.662-12.545c.4-1.14.247-1.472-.961-1.919-1.224-.4-1.549-.241-1.948.9l-6.962,14.721a3.579,3.579,0,0,0-.5.912l-1.365,3.9c-.758,2.163.667,4.649,3.166,5.524l5.125,1.795a1.409,1.409,0,0,0-.149.3l-.793,2.267c-.3.854.7.55,1.688.9s1.651,1.068,1.949.214l.743-2.12a1.5,1.5,0,0,0,.072-.331l4.431,1.552c2.5.875,5.165-.179,5.921-2.341l1.365-3.9a3.588,3.588,0,0,0,.184-1.181Z" transform="translate(-395.814 -85.296)"/><path class="c" d="M409.116,85.87c.066.023.116.044.177.066s.114.035.18.058Z" transform="translate(-395.916 -85.296)"/><path class="c" d="M424.856,91.772c.066.023.116.044.177.066s.113.035.18.058Z" transform="translate(-396.063 -85.352)"/><path class="c" d="M410.095,122.51l-3.9,14.077c-.757,2.159-3.556,3.161-6.219,2.232s-4.224-3.464-3.469-5.628l2.082-4.865" transform="translate(-395.796 -85.639)"/><path class="c" d="M402.894,118.64a3.8,3.8,0,0,1,4.6-1.192c1.166.409,2.565.617,2.565,2.305" transform="translate(-395.857 -85.588)"/><ellipse class="d" cx="1.223" cy="1.446" rx="1.223" ry="1.446" transform="translate(3.993 49.324) rotate(-70.678)"/><path class="c" d="M417.531,136.581l-2.4-3.955.573-6.041-1.465-4.643s-4.507-3.3-6.39-2.71c-.779.245-1.729,1.661.92,2.988a2.036,2.036,0,0,1,1.426.257c1.1.51,2.368,1.789,1.967,4.743" transform="translate(-395.896 -85.609)"/><path class="c" d="M402.943,122.018l-3.337-2.068a1.183,1.183,0,0,1-.308-1.721,1.4,1.4,0,0,1,1.833-.394l3.337,2.068a1.183,1.183,0,0,1,.308,1.722A1.4,1.4,0,0,1,402.943,122.018Z" transform="translate(-395.822 -85.594)"/><path class="c" d="M403.234,125.183l-4.8-2.952a1.111,1.111,0,0,1-.205-1.619,1.311,1.311,0,0,1,1.688-.456l4.8,2.952a1.111,1.111,0,0,1,.206,1.619A1.311,1.311,0,0,1,403.234,125.183Z" transform="translate(-395.811 -85.616)"/><path class="c" d="M402.131,127.771l-4.394-2.68a1.079,1.079,0,0,1-.116-1.563,1.266,1.266,0,0,1,1.591-.52l4.394,2.68a1.079,1.079,0,0,1,.117,1.563A1.267,1.267,0,0,1,402.131,127.771Z" transform="translate(-395.806 -85.643)"/><path class="c" d="M401.893,129.058a1.161,1.161,0,0,1-1.493.416l-2.134-1.311a.987.987,0,0,1-.17-1.439,1.163,1.163,0,0,1,1.494-.417l2.133,1.311a.986.986,0,0,1,.17,1.44Z" transform="translate(-395.81 -85.674)"/><path class="c" d="M10.625,50.111l3.2,4.6"/></g></g></svg>