<svg xmlns="http://www.w3.org/2000/svg" xmlns:xlink="http://www.w3.org/1999/xlink" width="55" height="55" viewBox="0 0 55 55"><defs><style>.a,.c,.d{fill:none;}.a{stroke:#707070;}.b{clip-path:url(#a);}.c,.d{stroke:#e7eece;stroke-width:1.009px;}.c{stroke-miterlimit:10;}.d{stroke-linecap:round;stroke-linejoin:round;}</style><clipPath id="a"><rect class="a" width="55" height="55" transform="translate(828 138)"/></clipPath></defs><g class="b" transform="translate(-828 -138)"><g transform="translate(841.641 138.001)"><path class="c" d="M198.174,95.874a4.218,4.218,0,0,0-.252,8.274s1.171-1.767,6.113-4.086c0,0-4.009-2.376-5.075-3.261a6.035,6.035,0,0,1-.786-.927Z" transform="translate(-194.139 -86.28)"/><path class="c" d="M210.433,114.978a12.187,12.187,0,0,0-.854-1.723,14.961,14.961,0,0,1-1.823.331,4.013,4.013,0,0,1-2.27-1s5.082,4.6.741,7.941h2.787a3.363,3.363,0,0,0,1.722-1.962" transform="translate(-194.258 -86.463)"/><path class="c" d="M204,109.985a4.1,4.1,0,0,0,8.059.247s-1.72-1.149-3.98-5.992c0,0-2.315,3.93-3.174,4.975a5.877,5.877,0,0,1-.905.77Z" transform="translate(-194.241 -86.371)"/><path class="c" d="M217.941,104.025a4.1,4.1,0,0,0,.247-8.061s-1.149,1.721-5.992,3.98c0,0,3.93,2.314,4.975,3.174a5.882,5.882,0,0,1,.77.906Z" transform="translate(-194.332 -86.281)"/><path class="c" d="M212.06,90.144A4.1,4.1,0,0,0,204,89.9s1.72,1.149,3.98,5.992c0,0,2.314-3.93,3.174-4.975a5.88,5.88,0,0,1,.906-.77Z" transform="translate(-194.241 -86.179)"/><path class="c" d="M205.852,97.676c-.971.971-.659,1.253-.88,1.522-.141.171-.063.482-.342.635a1.078,1.078,0,0,1-.957-.068,50.814,50.814,0,0,1-4.379-2.584,4.7,4.7,0,0,1-1.129-1.258,4.462,4.462,0,0,1,.4-5.364,4.569,4.569,0,0,1,6.622.728c.79,1.016,2.584,4.379,2.584,4.379a.471.471,0,0,1,.165.513,3.963,3.963,0,0,1-.353.7,2.634,2.634,0,0,0-1.734.8Z" transform="translate(-194.17 -86.209)"/><path class="c" d="M210.2,102.454a3.2,3.2,0,0,0,1.009-1.919c.168-.488.7-.466,1.215-.218,0,0,3.362,1.795,4.379,2.584a4.566,4.566,0,0,1,.727,6.622,4.48,4.48,0,0,1-5.523.3,4.712,4.712,0,0,1-1.1-1.026,50.8,50.8,0,0,1-2.584-4.379c-.311-.608.367-.675.127-1.151-.211-.422.842.1,1.749-.812Z" transform="translate(-194.288 -86.326)"/><path class="c" d="M205.78,102.373a3.747,3.747,0,0,0,2.552.89c-.195.374-.4.769-.592,1.183a50.819,50.819,0,0,1-2.584,4.379,4.567,4.567,0,0,1-6.622.728,4.465,4.465,0,0,1-.4-5.372,4.7,4.7,0,0,1,1.123-1.25,50.8,50.8,0,0,1,4.379-2.584c.442-.228,1.192-.621,1.353-.233a2.752,2.752,0,0,0,.787,2.263" transform="translate(-194.169 -86.325)"/><path class="c" d="M210.081,97.631c-.971-.97-1.352-.715-2.385-.755,0,0,.393-.765.589-1.178,0,0,1.795-3.362,2.584-4.379a4.7,4.7,0,0,1,1.276-1.14,4.461,4.461,0,0,1,5.347.412,4.569,4.569,0,0,1-.727,6.622c-1.018.79-4.379,2.584-4.379,2.584-.43.222-1.213,1.025-1.182.621a4.146,4.146,0,0,0-1.123-2.789Z" transform="translate(-194.283 -86.21)"/><circle class="c" cx="3.15" cy="3.15" r="3.15" transform="translate(10.654 10.64)"/><path class="d" d="M209.3,118.047a6.987,6.987,0,0,0,7.968-1.763c.764-.842,1.4-1.8,2.324-2.988a7.663,7.663,0,0,0-6.824.337c-1.7.932-3.3,2.019-3.329,4.281" transform="translate(-194.3 -86.464)"/><path class="d" d="M214.864,115.474l-4.755,2.154" transform="translate(-194.308 -86.495)"/><g transform="translate(0.685 34.066)"><path class="d" d="M0,0H26.529V4.7H0Z"/><path class="d" d="M216.234,141.1H200.023L198.3,125.372h19.665Z" transform="translate(-194.864 -120.669)"/></g></g></g></svg>