<svg xmlns="http://www.w3.org/2000/svg" xmlns:xlink="http://www.w3.org/1999/xlink" width="55" height="55" viewBox="0 0 55 55"><defs><style>.a{fill:none;stroke:#707070;}.b{clip-path:url(#a);}.c{fill:#e7eece;stroke:#e7eece;stroke-width:0.388px;}</style><clipPath id="a"><rect class="a" width="55" height="55" transform="translate(1130 138)"/></clipPath></defs><g class="b" transform="translate(-1130 -138)"><path class="c" d="M477.223,133.872H456.478c-1.183,0-1.319-.127-1.349-1.3a25.052,25.052,0,0,1,.244-4.781,9.033,9.033,0,0,1,7.66-7.853c1.486-.3,3-.377,4.495-.586,2.188-.3,3.378-1.543,3.451-3.548a1.154,1.154,0,0,0-.41-.925,3.939,3.939,0,0,0-2.652-1.042c-1.552-.143-3.091-.442-4.645-.548-2.6-.176-4.835-2.028-4.382-5.533a37.625,37.625,0,0,1,1.785-8.239c.217-.59.078-.753-.538-.748-2.689.02-5.379.009-8.07.009h-.649c-.358-.008-.767.036-.882-.424-.11-.441.241-.642.543-.829.492-.3.983-.6,1.5-.854a38.38,38.38,0,0,1,9.889-3.233,1.23,1.23,0,0,0,1.169-1.235c.237-1.82.56-3.631.866-5.442a9.04,9.04,0,0,1,8.83-7.493q3.89-.025,7.781,0a9.036,9.036,0,0,1,8.939,7.705c.278,1.814.608,3.623.866,5.442a1.042,1.042,0,0,0,.995.989,39.678,39.678,0,0,1,9.965,3.235c.494.244.972.522,1.439.813.336.208.795.388.668.9-.133.538-.63.425-1.021.426-2.786.008-5.572,0-8.357,0-.989,0-.986,0-.676.937a33.528,33.528,0,0,1,1.719,8.756,4.286,4.286,0,0,1-4.04,4.76c-1.879.252-3.757.532-5.644.676a2.631,2.631,0,0,0-2.31,1.435,2.815,2.815,0,0,0,.831,2.888,4.122,4.122,0,0,0,2.587,1.127c1.474.206,2.963.283,4.423.58a10.3,10.3,0,0,1,4.805,2.3,9.4,9.4,0,0,1,2.96,6.261,26.716,26.716,0,0,1,.125,4.216c-.024,1-.2,1.155-1.2,1.155l-20.962,0Zm.031-35.1c-3.623,0-7.246,0-10.869,0-.512,0-.874.04-.869.71a23.378,23.378,0,0,0,1.982,9.954c1.79,3.8,4.692,6.1,9.016,6.334a10.1,10.1,0,0,0,10.193-5.71A22.182,22.182,0,0,0,489,99.821c.019-1.043.008-1.046-1.015-1.047H477.255Zm.233-18.44c-1.446,0-2.6-.016-3.751,0a7.953,7.953,0,0,0-8.2,6.941c-.3,1.666-.538,3.342-.829,5.009-.09.513-.052.72.586.617a73,73,0,0,1,9.669-.857,78.153,78.153,0,0,1,14.277.867c.543.085.688-.011.594-.553-.317-1.832-.573-3.675-.914-5.5a7.822,7.822,0,0,0-7.192-6.446c-1.516-.123-3.027-.027-4.244-.073Zm-.256,52.467c3.07,0,6.142,0,9.213,0,.484,0,.828-.032.824-.67q-.029-5.509,0-11.018c0-.6-.349-.674-.8-.785-.5-.125-.621.168-.756.528a7.243,7.243,0,0,1-2.432,3.216,9.784,9.784,0,0,1-6.739,1.771c-3.578-.2-6.381-1.629-7.776-5.125a.549.549,0,0,0-.71-.388.788.788,0,0,0-.8.931q.039,5.331,0,10.661c-.005.693.216.9.9.891,3.02-.036,6.044-.017,9.067-.017Zm-24.914-35.14h50.2c-12-6.335-39.3-6.073-50.2,0Zm25.2,27.15a7.624,7.624,0,0,0,1.581-.173,6.768,6.768,0,0,0,5.54-4.035c.155-.356.325-.718-.132-1a4.257,4.257,0,0,1-1.969-3.181c-.06-.421-.155-.589-.629-.406a12.7,12.7,0,0,1-9.272.007c-.452-.168-.573-.06-.642.388a4.227,4.227,0,0,1-2.027,3.219c-.342.2-.286.452-.183.733a6.1,6.1,0,0,0,1.827,2.611,8.959,8.959,0,0,0,5.9,1.841Zm-17.586-16.3a3.325,3.325,0,0,0,3.034,3.624c1.536.248,3.086.411,4.631.605.155.02.363.092.466-.078s-.078-.3-.172-.432a16.377,16.377,0,0,1-2.307-4.74,29.444,29.444,0,0,1-1.182-7.461c-.067-1.266-.116-1.252-1.414-1.261-.509,0-.9.033-1.124.621a37.043,37.043,0,0,0-1.937,9.122Zm31.547-9.732c-1.272.007-1.346-.1-1.343,1.154,0,.452-.057.9-.091,1.354-.281,3.927-1.086,7.692-3.431,10.982-.078.113-.223.228-.155.374.089.2.293.109.445.092,1.522-.185,3.047-.35,4.564-.578,2.135-.32,3.281-1.62,3.113-3.659a35.836,35.836,0,0,0-1.771-8.738c-.255-.737-.354-.986-1.331-.98Zm.988,28.251c0,1.667.018,3.336-.01,5-.009.594.206.794.8.781,1.438-.031,2.877-.027,4.315,0,.549.009.762-.179.776-.74a23.688,23.688,0,0,0-.327-4.412,7.6,7.6,0,0,0-4.846-6.1c-.526-.222-.723-.151-.713.466.028,1.663.009,3.33.009,5Zm-30.407.041c0-1.692-.013-3.383.008-5.075.008-.558-.161-.666-.67-.446a7.455,7.455,0,0,0-4.566,4.822,19.137,19.137,0,0,0-.642,5.8c.01.518.268.641.727.637,1.439-.013,2.877-.028,4.315.007.621.016.854-.178.84-.813-.036-1.644-.014-3.288-.014-4.933Zm4.136-.33v-4.007c0-2.328-.048-2.357-2.363-1.84-.408.092-.621.267-.621.717q.016,5.3,0,10.591c0,.417.165.616.6.6a14.142,14.142,0,0,1,1.512.007c.645.05.9-.175.882-.848-.038-1.742-.012-3.484-.012-5.226Zm22.136,0v4.005c0,2.076,0,2.051,2.091,2.072.7.007.907-.223.9-.9-.029-3.005-.012-6.01-.012-9.015,0-2.114,0-2.095-2.188-2.211-.6-.032-.811.155-.8.755.027,1.765.009,3.531.009,5.3Z" transform="translate(680.239 58.93)"/></g></svg>