<svg xmlns="http://www.w3.org/2000/svg" xmlns:xlink="http://www.w3.org/1999/xlink" width="55" height="55" viewBox="0 0 55 55"><defs><style>.a,.c,.d{fill:none;}.a{stroke:#707070;}.b{clip-path:url(#a);}.c,.d{stroke:#e7eece;stroke-width:0.992px;}.c{stroke-linecap:round;stroke-linejoin:round;}.d{stroke-miterlimit:10;}</style><clipPath id="a"><rect class="a" width="55" height="55" transform="translate(666 138)"/></clipPath></defs><g class="b" transform="translate(-666 -138)"><g transform="translate(665.991 141.712)"><path class="c" d="M63.676,135.889c0-5.646-.058-15.572-.058-21.231H37.3V135.6" transform="translate(-23.249 -89.163)"/><path class="c" d="M49.36,93.563c-6.293,4.609-12.285,9.279-18.641,13.4-1.176.763-2.707,1.782-2.707,2.485,0,8.517-.16,16.491-.16,23.469l43.12.47c-.02-8.284-.305-16.093.063-24.581" transform="translate(-22.245 -86.27)"/><path class="c" d="M52.778,114.9v21.019" transform="translate(-25.268 -89.188)"/><path class="d" d="M75.034,104.383,50.747,86.414a3,3,0,0,0-3.157,0L23.3,104.383a2.467,2.467,0,0,0-.525,3.406l.655.91a2.389,2.389,0,0,0,3.357.534L49.168,92.676l22.376,16.558A2.39,2.39,0,0,0,74.9,108.7l.655-.91a2.468,2.468,0,0,0-.523-3.406Z" transform="translate(-21.659 -85.463)"/></g></g></svg>