<svg xmlns="http://www.w3.org/2000/svg" xmlns:xlink="http://www.w3.org/1999/xlink" width="55" height="55" viewBox="0 0 55 55"><defs><style>.a,.c{fill:none;}.a{stroke:#707070;}.b{clip-path:url(#a);}.c{stroke:#e7eece;stroke-miterlimit:10;stroke-width:1.005px;}</style><clipPath id="a"><rect class="a" width="55" height="55" transform="translate(907 138)"/></clipPath></defs><g class="b" transform="translate(-907 -138)"><g transform="translate(913.99 138)"><path class="c" d="M257.268,134.891h-1.025V93.2h7.5" transform="translate(-255.227 -85.955)"/><path class="c" d="M290.058,111.529v22.916H267.419" transform="translate(-255.395 -85.508)"/><path class="c" d="M282.973,93.2H290.3v7.049" transform="translate(-255.63 -85.955)"/><path class="c" d="M278.84,90.837H276.8a2.807,2.807,0,0,0,.281-1.206c0-1.81-1.749-3.278-3.906-3.278s-3.907,1.469-3.907,3.278a2.808,2.808,0,0,0,.281,1.206h-2.036c-2.111,0-3.838,1.449-3.838,3.22s1.728,3.221,3.838,3.221h11.324c2.111,0,3.838-1.449,3.838-3.221s-1.726-3.22-3.837-3.22Z" transform="translate(-255.339 -85.851)"/><ellipse class="c" cx="1.607" cy="1.348" rx="1.607" ry="1.348" transform="translate(16.232 2.397)"/><path class="c" d="M264.3,138.361l-4.128,1.309-4.248,1.16,1.133-4.345,1.133-4.345" transform="translate(-255.222 -86.543)"/><path class="c" d="M258.3,131.634l29.133-29.588a8.307,8.307,0,0,1,2.448-1.738c1.878-.858,3.807-.773,4.95.406,1.659,1.715,1.045,5.119-1.365,7.567l-29.133,29.587Z" transform="translate(-255.258 -86.054)"/><path class="c" d="M5.521,52.946l-3.48-3.783"/><path class="c" d="M288.155,101.729l6.052,6.187-1.9,1.948-6.052-6.187Z" transform="translate(-255.681 -86.084)"/><path class="c" d="M260.039,133.5l27.543-27.955,2.6,2.693L262.641,136.2Z" transform="translate(-255.284 -86.141)"/></g></g></svg>